<svg xmlns="http://www.w3.org/2000/svg" version="1.1" xmlns:xlink="http://www.w3.org/1999/xlink" xmlns:svgjs="http://svgjs.dev/svgjs" width="2000" height="1796" viewBox="0 0 2000 1796"><g transform="matrix(1,0,0,1,1.5840001051529953,0.7284682304278931)"><svg viewBox="0 0 275 247" data-background-color="#ffffff" preserveAspectRatio="xMidYMid meet" height="1796" width="2000" xmlns="http://www.w3.org/2000/svg" xmlns:xlink="http://www.w3.org/1999/xlink"><g id="tight-bounds" transform="matrix(1,0,0,1,-0.2178000144585326,-0.09997365579206985)"><svg viewBox="0 0 275.4354667347808 247.2" height="247.2" width="275.4354667347808"><g><svg viewBox="0 0 275.4354667347808 247.2" height="247.2" width="275.4354667347808"><g><svg viewBox="0 0 275.4354667347808 247.2" height="247.2" width="275.4354667347808"><g id="textblocktransform"><svg viewBox="0 0 275.4354667347808 247.2" height="247.2" width="275.4354667347808" id="textblock"><g><svg viewBox="0 0 275.4354667347808 247.2" height="247.2" width="275.4354667347808"><path d="M274.791 53.02C273.496 27.36 269.805 20.227 269.805 20.227 258.475-6.202 244.335-0.506 231.632 3.292 209.205 3.446 186.868 9.091 164.493 12.119 117.527 12.581 70.161 4.986 23.428 23.717 19.039 29.464-4.554 24.846 0.781 56.304 2.179 69.39 7.281 83.913 7.126 95.922 7.825 98.026 8.796 93.202 9.21 96.23 10.661 104.39 13.03 100.541 14.973 105.365 12.266 118.246 14.209 128.971 16.06 140.21 12.797 143.135 8.615 141.749 6.737 151.449 6.543 158.479 5.494 157.145 4.342 156.837 3.5 156.632 1.804 157.402 2.089 159.608 3.06 167.152-1.11 171.514 1.506 178.904-0.294 186.91 2.749 193.838 2.335 202.511 2.283 204.255 2.568 205.744 3.021 206.154 5.028 208.361 2.102 212.672 2.412 217.342 23.001 249.262 45.338 227.195 66.431 241.872 71.909 231.608 67.791 245.516 69.979 243.36 71.688 240.846 72.932 251.263 74.861 245.362 75.159 243.668 74.706 239.665 75.767 240.435 76.324 240.846 76.816 240.743 76.894 238.382 77.01 234.841 75.988 237.048 75.716 235.201 78.655 225.861 77.93 248.081 80.688 247.158 80.558 244.438 79.756 240.538 81.4 241.051 83.032 237.151 83.083 233.918 84.534 242.693 84.586 244.592 84.844 245.926 85.259 246.85 89.791 237.305 94.297 250.237 99.049 245.926 101.963 241.205 104.76 248.492 107.712 246.696 108.748 245.259 109.797 242.693 110.794 247.004 123.005 247.928 136.018 244.079 147.594 247.158 178.529 241.41 211.587 249.518 244.206 241.923 251.897 238.998 259.887 234.841 267.384 231.506 267.384 231.506 273.457 222.371 273.457 181.316S274.752 145.393 274.946 112.703C275.14 80.013 276.047 78.679 274.752 53.02Z" opacity="1" fill="#755bb4" data-fill-palette-color="tertiary"></path><g transform="matrix(1,0,0,1,55.76832000000002,26.230666666666668)"><svg width="163.89882673478076" viewBox="-0.59 -36.87 32.18 38.239999999999995" height="194.73866666666666" data-palette-color="#ffffff"><path d="M15.23 1.37L15.23 1.37Q12.52 1.37 10.29 1.01 8.06 0.66 5.99-0.23 3.93-1.12 2.51-2.54 1.1-3.96 0.26-6.23-0.59-8.5-0.59-11.47L-0.59-11.47Q-0.59-12.79 0.2-12.79L0.2-12.79 11.33-12.79Q12.08-12.79 12.45-12.43 12.82-12.06 12.89-11.52 12.96-10.99 13.02-10.45 13.09-9.91 13.39-9.55 13.7-9.18 14.36-9.18L14.36-9.18Q14.97-9.18 15.34-9.51 15.72-9.84 15.88-10.5 16.04-11.16 16.08-11.65 16.11-12.13 16.11-12.89L16.11-12.89 16.11-13.09Q16.09-14.84 15.98-19.87 15.87-24.9 15.87-27.73L15.87-27.73 15.87-36.04Q15.87-36.74 16.89-36.87L16.89-36.87Q17.68-36.87 19.24-36.84 20.8-36.82 21.58-36.82L21.58-36.82Q22.75-36.82 25.05-36.84 27.34-36.87 28.52-36.87L28.52-36.87 30.81-36.87Q31.37-36.87 31.59-36.18L31.59-36.18Q31.54-35.74 31.56-34.99 31.57-34.23 31.54-33.79L31.54-33.79 31.54-32.57Q31.3-25.07 31.3-19.19L31.3-19.19 31.3-11.52Q31.3-9.38 30.71-7.54 30.13-5.71 29.15-4.42 28.17-3.13 26.82-2.09 25.46-1.05 24.02-0.42 22.58 0.22 20.98 0.63 19.38 1.05 17.98 1.21 16.58 1.37 15.23 1.37Z" opacity="1" transform="matrix(1,0,0,1,0,0)" fill="#ffffff" class="undefined-text-0" data-fill-palette-color="quaternary" id="text-0"></path></svg></g></svg></g></svg></g></svg></g><g></g></svg></g><defs></defs></svg><rect width="275.4354667347808" height="247.2" fill="none" stroke="none" visibility="hidden"></rect></g></svg></g></svg>